<svg width="360" height="360" viewBox="0 0 360 360" xmlns="http://www.w3.org/2000/svg">
  <!-- Background (orange = heating active) -->
  <circle cx="180" cy="180" r="180" fill="#E46A2C"/>

  <!-- 60 tick marks over 270 degrees (135° to 405°), representing 0-30°C -->
  <!-- Center: (180,180), Outer radius: 175, Inner radius: 160 -->
  <!-- Formula: x = cx + r*cos(θ), y = cy + r*sin(θ) where θ = 135° + i*4.5° -->
  <!-- Current temp: 20.5°C (tick 41), Target temp: 21.5°C (tick 43) -->

  <g stroke="#FFFFFF" stroke-linecap="round">
    <!-- Ticks 0-40 (before current, 70% opacity) -->
    <g opacity="0.7" stroke-width="2">
      <!-- tick 0: 135° (bottom-left) -->
      <line x1="66.9" y1="293.1" x2="56.3" y2="303.7"/>
      <!-- tick 1: 139.5° -->
      <line x1="59.8" y1="283.8" x2="48.6" y2="293.6"/>
      <!-- tick 2: 144° -->
      <line x1="53.5" y1="274.0" x2="41.7" y2="282.8"/>
      <!-- tick 3: 148.5° -->
      <line x1="48.0" y1="263.6" x2="35.7" y2="271.4"/>
      <!-- tick 4: 153° -->
      <line x1="43.4" y1="252.8" x2="30.6" y2="259.4"/>
      <!-- tick 5: 157.5° -->
      <line x1="39.7" y1="241.5" x2="26.5" y2="246.9"/>
      <!-- tick 6: 162° -->
      <line x1="36.9" y1="229.8" x2="23.4" y2="234.0"/>
      <!-- tick 7: 166.5° -->
      <line x1="35.1" y1="217.9" x2="21.4" y2="220.7"/>
      <!-- tick 8: 171° -->
      <line x1="34.2" y1="205.7" x2="20.4" y2="207.2"/>
      <!-- tick 9: 175.5° -->
      <line x1="34.2" y1="193.5" x2="20.4" y2="193.6"/>
      <!-- tick 10: 180° (left) -->
      <line x1="35.2" y1="181.2" x2="21.5" y2="180.0"/>
      <!-- tick 11: 184.5° -->
      <line x1="37.2" y1="169.0" x2="23.6" y2="166.5"/>
      <!-- tick 12: 189° -->
      <line x1="40.0" y1="157.0" x2="26.7" y2="153.2"/>
      <!-- tick 13: 193.5° -->
      <line x1="43.8" y1="145.2" x2="30.9" y2="140.3"/>
      <!-- tick 14: 198° -->
      <line x1="48.5" y1="133.8" x2="36.0" y2="127.8"/>
      <!-- tick 15: 202.5° -->
      <line x1="54.0" y1="122.9" x2="42.1" y2="115.9"/>
      <!-- tick 16: 207° -->
      <line x1="60.4" y1="112.5" x2="49.1" y2="104.6"/>
      <!-- tick 17: 211.5° -->
      <line x1="67.5" y1="102.7" x2="57.0" y2="94.0"/>
      <!-- tick 18: 216° -->
      <line x1="75.5" y1="93.5" x2="65.7" y2="84.2"/>
      <!-- tick 19: 220.5° -->
      <line x1="84.2" y1="85.1" x2="75.2" y2="75.2"/>
      <!-- tick 20: 225° (upper-left) -->
      <line x1="93.5" y1="77.5" x2="85.4" y2="67.0"/>
      <!-- tick 21: 229.5° -->
      <line x1="103.5" y1="70.6" x2="96.3" y2="59.7"/>
      <!-- tick 22: 234° -->
      <line x1="114.0" y1="64.5" x2="107.8" y2="53.4"/>
      <!-- tick 23: 238.5° -->
      <line x1="125.0" y1="59.3" x2="119.9" y2="47.9"/>
      <!-- tick 24: 243° -->
      <line x1="136.5" y1="55.0" x2="132.5" y2="43.5"/>
      <!-- tick 25: 247.5° -->
      <line x1="148.3" y1="51.6" x2="145.5" y2="40.0"/>
      <!-- tick 26: 252° -->
      <line x1="160.3" y1="49.1" x2="158.8" y2="37.5"/>
      <!-- tick 27: 256.5° -->
      <line x1="172.5" y1="47.5" x2="172.3" y2="36.0"/>
      <!-- tick 28: 261° -->
      <line x1="184.7" y1="46.9" x2="186.0" y2="35.4"/>
      <!-- tick 29: 265.5° -->
      <line x1="196.9" y1="47.3" x2="199.6" y2="35.9"/>
      <!-- tick 30: 270° (top) -->
      <line x1="209.0" y1="48.5" x2="213.2" y2="37.3"/>
      <!-- tick 31: 274.5° -->
      <line x1="220.9" y1="50.7" x2="226.5" y2="39.7"/>
      <!-- tick 32: 279° -->
      <line x1="232.5" y1="53.8" x2="239.5" y2="43.2"/>
      <!-- tick 33: 283.5° -->
      <line x1="243.8" y1="57.8" x2="252.1" y2="47.5"/>
      <!-- tick 34: 288° -->
      <line x1="254.6" y1="62.6" x2="264.2" y2="52.8"/>
      <!-- tick 35: 292.5° -->
      <line x1="264.9" y1="68.2" x2="275.7" y2="58.9"/>
      <!-- tick 36: 297° -->
      <line x1="274.6" y1="74.6" x2="286.5" y2="65.9"/>
      <!-- tick 37: 301.5° -->
      <line x1="283.7" y1="81.8" x2="296.7" y2="73.8"/>
      <!-- tick 38: 306° -->
      <line x1="292.1" y1="89.6" x2="306.0" y2="82.4"/>
      <!-- tick 39: 310.5° -->
      <line x1="299.7" y1="98.1" x2="314.4" y2="91.7"/>
      <!-- tick 40: 315° (upper-right) -->
      <line x1="306.5" y1="107.1" x2="322.0" y2="101.6"/>
    </g>

    <!-- Current temp tick (20.5°C, tick 41) - bold -->
    <!-- tick 41: 319.5° -->
    <line x1="312.5" y1="116.7" x2="328.7" y2="112.1" stroke-width="4"/>

    <!-- Tick between current and target (100% opacity) -->
    <!-- tick 42: 324° -->
    <line x1="317.6" y1="126.8" x2="334.3" y2="123.2" stroke-width="2"/>

    <!-- Target temp tick (21.5°C, tick 43) - bold and longer (inner radius 150) -->
    <!-- tick 43: 328.5° -->
    <line x1="317.5" y1="140.0" x2="339.0" y2="134.8" stroke-width="4"/>

    <!-- Ticks 44-59 (after target, 70% opacity) -->
    <g opacity="0.7" stroke-width="2">
      <!-- tick 44: 333° -->
      <line x1="325.3" y1="148.2" x2="342.6" y2="146.0"/>
      <!-- tick 45: 337.5° -->
      <line x1="328.0" y1="158.9" x2="345.3" y2="158.0"/>
      <!-- tick 46: 342° -->
      <line x1="329.8" y1="169.9" x2="347.1" y2="170.2"/>
      <!-- tick 47: 346.5° -->
      <line x1="330.6" y1="181.0" x2="347.9" y2="182.6"/>
      <!-- tick 48: 351° -->
      <line x1="330.5" y1="192.2" x2="347.7" y2="195.0"/>
      <!-- tick 49: 355.5° -->
      <line x1="329.5" y1="203.3" x2="346.5" y2="207.4"/>
      <!-- tick 50: 360° (right) -->
      <line x1="327.5" y1="214.4" x2="344.3" y2="219.7"/>
      <!-- tick 51: 364.5° -->
      <line x1="324.6" y1="225.2" x2="341.1" y2="231.7"/>
      <!-- tick 52: 369° -->
      <line x1="320.8" y1="235.8" x2="336.9" y2="243.4"/>
      <!-- tick 53: 373.5° -->
      <line x1="316.1" y1="246.0" x2="331.8" y2="254.7"/>
      <!-- tick 54: 378° -->
      <line x1="310.6" y1="255.7" x2="325.8" y2="265.5"/>
      <!-- tick 55: 382.5° -->
      <line x1="304.3" y1="265.0" x2="318.9" y2="275.8"/>
      <!-- tick 56: 387° -->
      <line x1="297.2" y1="273.7" x2="311.2" y2="285.4"/>
      <!-- tick 57: 391.5° -->
      <line x1="289.4" y1="281.8" x2="302.7" y2="294.3"/>
      <!-- tick 58: 396° -->
      <line x1="281.0" y1="289.2" x2="293.5" y2="302.5"/>
      <!-- tick 59: 400.5° (bottom-right) -->
      <line x1="272.0" y1="295.9" x2="283.7" y2="309.9"/>
    </g>
  </g>

  <!-- Target temperature (large, center) -->
  <text x="180" y="175" text-anchor="middle" fill="#FFFFFF" font-family="Arial, sans-serif" font-size="48" font-weight="bold">21.5°</text>

  <!-- Current temperature (smaller, below) -->
  <text x="180" y="220" text-anchor="middle" fill="#FFFFFF" font-family="Arial, sans-serif" font-size="32">20.5°</text>

  <!-- Status text -->
  <text x="180" y="260" text-anchor="middle" fill="#FFFFFF" font-family="Arial, sans-serif" font-size="12" opacity="0.7">Temp set</text>
</svg>
