<svg width="360" height="360" viewBox="0 0 360 360" xmlns="http://www.w3.org/2000/svg">
  <!-- Background (orange = heating active) -->
  <circle cx="180" cy="180" r="180" fill="#E46A2C"/>

  <!-- 60 tick marks over 270 degrees (135° to 405°), representing 0-30°C -->
  <!-- Center: (180,180), Outer radius: 175, Inner radius: 160 -->
  <!-- Current temp: 20.5°C (tick 41), Target temp: 21.5°C (tick 43) -->

  <g stroke="#FFFFFF" stroke-linecap="round">
    <!-- Ticks 0-40 (before current, 70% opacity) -->
    <g opacity="0.7" stroke-width="2">
      <!-- tick 0: 135.0° -->
      <line x1="66.9" y1="293.1" x2="56.3" y2="303.7"/>
      <!-- tick 1: 139.5° -->
      <line x1="60.4" y1="282.3" x2="49.1" y2="292.2"/>
      <!-- tick 2: 144.0° -->
      <line x1="54.7" y1="271.0" x2="42.8" y2="280.0"/>
      <!-- tick 3: 148.5° -->
      <line x1="49.9" y1="259.2" x2="37.4" y2="267.3"/>
      <!-- tick 4: 153.0° -->
      <line x1="45.9" y1="246.9" x2="32.9" y2="254.1"/>
      <!-- tick 5: 157.5° -->
      <line x1="42.8" y1="234.3" x2="29.4" y2="240.5"/>
      <!-- tick 6: 162.0° -->
      <line x1="40.6" y1="221.4" x2="26.8" y2="226.6"/>
      <!-- tick 7: 166.5° -->
      <line x1="39.4" y1="208.2" x2="25.3" y2="212.4"/>
      <!-- tick 8: 171.0° -->
      <line x1="39.1" y1="195.0" x2="24.8" y2="198.0"/>
      <!-- tick 9: 175.5° -->
      <line x1="39.7" y1="181.7" x2="25.3" y2="183.6"/>
      <!-- tick 10: 180.0° -->
      <line x1="41.3" y1="168.5" x2="26.8" y2="169.2"/>
      <!-- tick 11: 184.5° -->
      <line x1="43.8" y1="155.5" x2="29.3" y2="155.0"/>
      <!-- tick 12: 189.0° -->
      <line x1="47.2" y1="142.7" x2="32.8" y2="141.0"/>
      <!-- tick 13: 193.5° -->
      <line x1="51.5" y1="130.2" x2="37.3" y2="127.4"/>
      <!-- tick 14: 198.0° -->
      <line x1="56.7" y1="118.2" x2="42.8" y2="114.3"/>
      <!-- tick 15: 202.5° -->
      <line x1="62.7" y1="106.7" x2="49.3" y2="101.8"/>
      <!-- tick 16: 207.0° -->
      <line x1="69.5" y1="95.9" x2="56.6" y2="90.0"/>
      <!-- tick 17: 211.5° -->
      <line x1="77.1" y1="85.7" x2="64.8" y2="78.9"/>
      <!-- tick 18: 216.0° -->
      <line x1="85.4" y1="76.3" x2="73.9" y2="68.6"/>
      <!-- tick 19: 220.5° -->
      <line x1="94.4" y1="67.7" x2="83.7" y2="59.3"/>
      <!-- tick 20: 225.0° -->
      <line x1="104.0" y1="60.0" x2="94.3" y2="50.9"/>
      <!-- tick 21: 229.5° -->
      <line x1="114.2" y1="53.2" x2="105.5" y2="43.5"/>
      <!-- tick 22: 234.0° -->
      <line x1="124.9" y1="47.3" x2="117.3" y2="37.1"/>
      <!-- tick 23: 238.5° -->
      <line x1="136.1" y1="42.4" x2="129.6" y2="31.8"/>
      <!-- tick 24: 243.0° -->
      <line x1="147.6" y1="38.5" x2="142.3" y2="27.7"/>
      <!-- tick 25: 247.5° -->
      <line x1="159.4" y1="35.6" x2="155.3" y2="24.7"/>
      <!-- tick 26: 252.0° -->
      <line x1="171.4" y1="33.8" x2="168.6" y2="22.9"/>
      <!-- tick 27: 256.5° -->
      <line x1="183.5" y1="33.0" x2="182.0" y2="22.2"/>
      <!-- tick 28: 261.0° -->
      <line x1="195.6" y1="33.3" x2="195.4" y2="22.8"/>
      <!-- tick 29: 265.5° -->
      <line x1="207.5" y1="34.6" x2="208.7" y2="24.5"/>
      <!-- tick 30: 270.0° -->
      <line x1="219.2" y1="37.0" x2="221.8" y2="27.4"/>
      <!-- tick 31: 274.5° -->
      <line x1="230.5" y1="40.3" x2="234.5" y2="31.4"/>
      <!-- tick 32: 279.0° -->
      <line x1="241.4" y1="44.6" x2="246.9" y2="36.4"/>
      <!-- tick 33: 283.5° -->
      <line x1="251.7" y1="49.8" x2="258.7" y2="42.5"/>
      <!-- tick 34: 288.0° -->
      <line x1="261.4" y1="55.9" x2="269.8" y2="49.5"/>
      <!-- tick 35: 292.5° -->
      <line x1="270.4" y1="62.9" x2="280.2" y2="57.5"/>
      <!-- tick 36: 297.0° -->
      <line x1="278.6" y1="70.6" x2="289.8" y2="66.3"/>
      <!-- tick 37: 301.5° -->
      <line x1="286.0" y1="79.1" x2="298.5" y2="75.9"/>
      <!-- tick 38: 306.0° -->
      <line x1="292.6" y1="88.3" x2="306.2" y2="86.3"/>
      <!-- tick 39: 310.5° -->
      <line x1="298.2" y1="98.0" x2="313.0" y2="97.3"/>
      <!-- tick 40: 315.0° -->
      <line x1="302.9" y1="108.3" x2="318.7" y2="108.9"/>
    </g>

    <!-- Current temp tick (20.5°C, tick 41) - bold -->
    <!-- tick 41: 319.5° -->
    <line x1="306.6" y1="119.1" x2="323.4" y2="121.0" stroke-width="4"/>

    <!-- Tick between current and target (100% opacity) -->
    <!-- tick 42: 324.0° -->
    <line x1="309.4" y1="130.2" x2="327.0" y2="133.6" stroke-width="2"/>

    <!-- Target temp tick (21.5°C, tick 43) - bold and longer (inner radius 150) -->
    <!-- tick 43: 328.5° -->
    <line x1="311.2" y1="141.7" x2="333.1" y2="149.5" stroke-width="4"/>

    <!-- Ticks 44-59 (after target, 70% opacity) -->
    <g opacity="0.7" stroke-width="2">
      <!-- tick 44: 333.0° -->
      <line x1="312.0" y1="153.5" x2="329.5" y2="159.8"/>
      <!-- tick 45: 337.5° -->
      <line x1="311.8" y1="165.4" x2="330.0" y2="173.2"/>
      <!-- tick 46: 342.0° -->
      <line x1="310.6" y1="177.5" x2="329.4" y2="186.8"/>
      <!-- tick 47: 346.5° -->
      <line x1="308.4" y1="189.6" x2="327.7" y2="200.4"/>
      <!-- tick 48: 351.0° -->
      <line x1="305.3" y1="201.5" x2="324.9" y2="213.9"/>
      <!-- tick 49: 355.5° -->
      <line x1="301.2" y1="213.3" x2="321.0" y2="227.1"/>
      <!-- tick 50: 360.0° -->
      <line x1="296.2" y1="224.7" x2="316.0" y2="240.0"/>
      <!-- tick 51: 364.5° -->
      <line x1="290.3" y1="235.8" x2="309.9" y2="252.5"/>
      <!-- tick 52: 369.0° -->
      <line x1="283.6" y1="246.4" x2="302.8" y2="264.4"/>
      <!-- tick 53: 373.5° -->
      <line x1="276.0" y1="256.4" x2="294.7" y2="275.7"/>
      <!-- tick 54: 378.0° -->
      <line x1="267.7" y1="265.8" x2="285.6" y2="286.2"/>
      <!-- tick 55: 382.5° -->
      <line x1="258.6" y1="274.4" x2="275.6" y2="295.9"/>
      <!-- tick 56: 387.0° -->
      <line x1="248.9" y1="282.3" x2="264.8" y2="304.8"/>
      <!-- tick 57: 391.5° -->
      <line x1="238.6" y1="289.3" x2="253.2" y2="312.6"/>
      <!-- tick 58: 396.0° -->
      <line x1="227.7" y1="295.4" x2="240.9" y2="319.5"/>
      <!-- tick 59: 400.5° -->
      <line x1="216.3" y1="300.6" x2="228.0" y2="325.4"/>
    </g>
  </g>

  <!-- Target temperature (large, center) -->
  <text x="180" y="175" text-anchor="middle" fill="#FFFFFF" font-family="Arial, sans-serif" font-size="48" font-weight="bold">21.5°</text>

  <!-- Current temperature (smaller, below) -->
  <text x="180" y="220" text-anchor="middle" fill="#FFFFFF" font-family="Arial, sans-serif" font-size="32">20.5°</text>

  <!-- Status text -->
  <text x="180" y="260" text-anchor="middle" fill="#FFFFFF" font-family="Arial, sans-serif" font-size="12" opacity="0.7">Temp set</text>
</svg>
