<svg width="360" height="360" viewBox="0 0 360 360" xmlns="http://www.w3.org/2000/svg">
  <!-- Background (orange = heating active) -->
  <circle cx="180" cy="180" r="180" fill="#E46A2C"/>

  <!-- 60 tick marks over 270 degrees (135° to 405°), representing 0-30°C -->
  <!-- Current temp: 20.5°C (tick ~41), Target temp: 21.5°C (tick ~43) -->
  <!-- Ticks 0-40: before current (70% opacity) -->
  <!-- Ticks 41-43: between current and target (100% opacity, current and target are bold) -->
  <!-- Ticks 44-59: after target (70% opacity) -->

  <g stroke="#FFFFFF" stroke-linecap="round">
    <!-- Ticks 0-40 (0°C to 20°C range, 70% opacity) -->
    <g opacity="0.7" stroke-width="2">
      <line x1="52.4" y1="232.4" x2="66.0" y2="220.9"/>
      <line x1="46.5" y1="221.1" x2="60.8" y2="210.6"/>
      <line x1="41.4" y1="209.3" x2="56.3" y2="199.8"/>
      <line x1="37.1" y1="197.0" x2="52.6" y2="188.7"/>
      <line x1="33.7" y1="184.4" x2="49.7" y2="177.3"/>
      <line x1="31.2" y1="171.5" x2="47.6" y2="165.7"/>
      <line x1="29.5" y1="158.4" x2="46.2" y2="154.0"/>
      <line x1="28.8" y1="145.2" x2="45.7" y2="142.2"/>
      <line x1="28.9" y1="131.9" x2="45.9" y2="130.4"/>
      <line x1="30.0" y1="118.7" x2="47.0" y2="118.7"/>
      <line x1="32.0" y1="105.7" x2="48.8" y2="107.2"/>
      <line x1="34.8" y1="92.9" x2="51.4" y2="95.9"/>
      <line x1="38.5" y1="80.5" x2="54.7" y2="84.9"/>
      <line x1="43.0" y1="68.5" x2="58.8" y2="74.3"/>
      <line x1="48.3" y1="57.0" x2="63.5" y2="64.1"/>
      <line x1="54.4" y1="46.1" x2="68.9" y2="54.4"/>
      <line x1="61.2" y1="35.9" x2="74.9" y2="45.3"/>
      <line x1="68.7" y1="26.4" x2="81.6" y2="36.8"/>
      <line x1="76.8" y1="17.7" x2="88.8" y2="29.0"/>
      <line x1="85.5" y1="9.9" x2="96.5" y2="22.0"/>
      <line x1="94.8" y1="3.0" x2="104.7" y2="15.8"/>
      <line x1="104.5" y1="-3.0" x2="113.3" y2="10.4"/>
      <line x1="114.7" y1="-8.1" x2="122.3" y2="5.9"/>
      <line x1="125.3" y1="-12.2" x2="131.6" y2="2.3"/>
      <line x1="136.1" y1="-15.3" x2="141.1" y2="-0.4"/>
      <line x1="147.2" y1="-17.3" x2="150.8" y2="-2.2"/>
      <line x1="158.4" y1="-18.3" x2="160.6" y2="-3.0"/>
      <line x1="169.7" y1="-18.2" x2="170.5" y2="-2.9"/>
      <line x1="181.0" y1="-17.0" x2="180.4" y2="-1.7"/>
      <line x1="192.2" y1="-14.8" x2="190.2" y2="0.4"/>
      <line x1="203.2" y1="-11.6" x2="199.9" y2="3.4"/>
      <line x1="213.9" y1="-7.4" x2="209.3" y2="7.3"/>
      <line x1="224.3" y1="-2.3" x2="218.5" y2="12.0"/>
      <line x1="234.3" y1="3.7" x2="227.3" y2="17.5"/>
      <line x1="243.8" y1="10.6" x2="235.7" y2="23.8"/>
      <line x1="252.8" y1="18.3" x2="243.7" y2="30.8"/>
      <line x1="261.2" y1="26.8" x2="251.2" y2="38.4"/>
      <line x1="269.0" y1="36.0" x2="258.1" y2="46.7"/>
      <line x1="276.1" y1="45.8" x2="264.5" y2="55.6"/>
      <line x1="282.5" y1="56.3" x2="270.2" y2="65.0"/>
      <line x1="288.2" y1="67.3" x2="275.3" y2="74.9"/>
    </g>

    <!-- Current temp tick (20.5°C, tick 41) - bold -->
    <line x1="293.1" y1="78.8" x2="279.7" y2="85.3" stroke-width="4" opacity="1"/>

    <!-- Ticks between current and target (100% opacity) -->
    <g opacity="1" stroke-width="2">
      <line x1="297.3" y1="90.7" x2="283.4" y2="96.1"/>
    </g>

    <!-- Target temp tick (21.5°C, tick 43) - bold and longer -->
    <line x1="300.7" y1="103.0" x2="282.4" y2="110.5" stroke-width="4" opacity="1"/>

    <!-- Ticks 44-59 (after target, 70% opacity) -->
    <g opacity="0.7" stroke-width="2">
      <line x1="303.3" y1="115.6" x2="289.9" y2="119.5"/>
      <line x1="305.1" y1="128.5" x2="291.5" y2="131.2"/>
      <line x1="306.1" y1="141.5" x2="292.3" y2="143.0"/>
      <line x1="306.2" y1="154.6" x2="292.4" y2="154.8"/>
      <line x1="305.5" y1="167.7" x2="291.7" y2="166.6"/>
      <line x1="303.9" y1="180.6" x2="290.2" y2="178.3"/>
      <line x1="301.5" y1="193.4" x2="288.0" y2="189.8"/>
      <line x1="298.3" y1="205.8" x2="285.1" y2="201.1"/>
      <line x1="294.3" y1="217.8" x2="281.5" y2="212.0"/>
      <line x1="289.5" y1="229.4" x2="277.2" y2="222.5"/>
      <line x1="284.0" y1="240.4" x2="272.3" y2="232.6"/>
      <line x1="277.8" y1="250.8" x2="266.7" y2="242.2"/>
      <line x1="270.9" y1="260.5" x2="260.6" y2="251.1"/>
      <line x1="263.4" y1="269.5" x2="253.9" y2="259.4"/>
      <line x1="255.3" y1="277.7" x2="246.7" y2="267.0"/>
      <line x1="246.7" y1="285.1" x2="239.1" y2="273.9"/>
    </g>
  </g>

  <!-- Target temperature (large, center) -->
  <text x="180" y="175" text-anchor="middle" fill="#FFFFFF" font-family="Arial, sans-serif" font-size="48" font-weight="bold">21.5°</text>

  <!-- Current temperature (smaller, below) -->
  <text x="180" y="220" text-anchor="middle" fill="#FFFFFF" font-family="Arial, sans-serif" font-size="32">20.5°</text>

  <!-- Status text -->
  <text x="180" y="260" text-anchor="middle" fill="#FFFFFF" font-family="Arial, sans-serif" font-size="12" opacity="0.7">Temp set</text>
</svg>
